<?xml version="1.0" encoding="utf-8"?>
<svg xmlns="http://www.w3.org/2000/svg" viewBox="0 0 630 630">
  <path d="M 320.912 259.717 C 333.602 280.437 350.112 295.667 379.312 295.667 C 403.842 295.667 419.512 283.407 419.512 266.467 C 419.512 246.167 403.412 238.977 376.412 227.167 L 361.612 220.817 C 318.892 202.617 274.239 177.492 274.239 129.292 C 274.239 84.892 324.342 53.417 377.212 53.417 C 414.852 53.417 441.912 66.517 461.412 100.817 L 415.312 130.417 C 405.162 112.217 394.212 105.047 377.212 105.047 C 359.872 105.047 348.882 116.047 348.882 130.417 C 348.882 148.177 359.882 155.367 385.282 166.367 L 400.082 172.707 C 450.382 194.277 478.782 216.267 478.782 265.707 C 478.782 319.007 436.912 348.207 380.682 348.207 C 325.702 348.207 290.182 322.007 272.802 287.667 L 320.912 259.717 Z M 143.553 262.522 C 152.853 279.022 161.313 292.972 181.653 292.972 C 201.103 292.972 213.373 285.362 213.373 255.772 L 213.373 54.472 L 272.573 54.472 L 272.573 256.572 C 272.573 317.872 236.633 345.772 184.173 345.772 C 136.773 345.772 109.323 321.242 95.363 291.697 L 143.553 262.522 Z"/>
</svg>